<svg width="101" height="14" viewBox="0 0 101 14" fill="none" xmlns="http://www.w3.org/2000/svg">
<path d="M86.5113 0.5H97.73V2.26074H87.8462C87.1457 2.26078 86.5375 2.36131 86.0894 2.62598C85.6004 2.91494 85.3434 3.37614 85.3433 3.94336V4.33789C85.3433 4.90534 85.6002 5.36724 86.0894 5.65625C86.5375 5.92091 87.1457 6.02145 87.8462 6.02148H93.856C95.8765 6.02148 97.3145 6.28664 98.2329 6.76074L98.4097 6.8584C99.2665 7.36441 99.6997 8.13832 99.6997 9.26758V10.2539C99.6996 11.3123 99.3193 12.0584 98.5659 12.5645L98.4097 12.6621C97.5035 13.1973 96.0114 13.5 93.856 13.5C92.7251 13.5 91.5273 13.4871 90.2622 13.4609H90.2632L87.1919 13.3818H87.1929C85.0749 13.3205 82.8887 13.2351 80.6343 13.1279V11.459C86.4498 11.6451 90.4144 11.7393 92.521 11.7393C93.0094 11.7392 93.4545 11.6696 93.8238 11.4951L93.9771 11.4141C94.4056 11.161 94.6898 10.7704 94.69 10.2539V7.97852H86.5113C84.3407 7.97852 82.8051 7.7068 81.8384 7.21973L81.6529 7.11914C80.7839 6.5916 80.3335 5.76355 80.3335 4.53516V3.94336L80.3384 3.71777C80.3877 2.68404 80.7824 1.96036 81.4986 1.47656L81.6568 1.37695C82.6061 0.816288 84.1971 0.5 86.5113 0.5Z" fill="#DDDDDD"/>
<path d="M86.5113 0.5H97.73V2.26074H87.8462C87.1457 2.26078 86.5375 2.36131 86.0894 2.62598C85.6004 2.91494 85.3434 3.37614 85.3433 3.94336V4.33789C85.3433 4.90534 85.6002 5.36724 86.0894 5.65625C86.5375 5.92091 87.1457 6.02145 87.8462 6.02148H93.856C95.8765 6.02148 97.3145 6.28664 98.2329 6.76074L98.4097 6.8584C99.2665 7.36441 99.6997 8.13832 99.6997 9.26758V10.2539C99.6996 11.3123 99.3193 12.0584 98.5659 12.5645L98.4097 12.6621C97.5035 13.1973 96.0114 13.5 93.856 13.5C92.7251 13.5 91.5273 13.4871 90.2622 13.4609H90.2632L87.1919 13.3818H87.1929C85.0749 13.3205 82.8887 13.2351 80.6343 13.1279V11.459C86.4498 11.6451 90.4144 11.7393 92.521 11.7393C93.0094 11.7392 93.4545 11.6696 93.8238 11.4951L93.9771 11.4141C94.4056 11.161 94.6898 10.7704 94.69 10.2539V7.97852H86.5113C84.3407 7.97852 82.8051 7.7068 81.8384 7.21973L81.6529 7.11914C80.7839 6.5916 80.3335 5.76355 80.3335 4.53516V3.94336L80.3384 3.71777C80.3877 2.68404 80.7824 1.96036 81.4986 1.47656L81.6568 1.37695C82.6061 0.816288 84.1971 0.5 86.5113 0.5Z" stroke="#DDDDDD"/>
<path d="M86.5113 0.5H97.73V2.26074H87.8462C87.1457 2.26078 86.5375 2.36131 86.0894 2.62598C85.6004 2.91494 85.3434 3.37614 85.3433 3.94336V4.33789C85.3433 4.90534 85.6002 5.36724 86.0894 5.65625C86.5375 5.92091 87.1457 6.02145 87.8462 6.02148H93.856C95.8765 6.02148 97.3145 6.28664 98.2329 6.76074L98.4097 6.8584C99.2665 7.36441 99.6997 8.13832 99.6997 9.26758V10.2539C99.6996 11.3123 99.3193 12.0584 98.5659 12.5645L98.4097 12.6621C97.5035 13.1973 96.0114 13.5 93.856 13.5C92.7251 13.5 91.5273 13.4871 90.2622 13.4609H90.2632L87.1919 13.3818H87.1929C85.0749 13.3205 82.8887 13.2351 80.6343 13.1279V11.459C86.4498 11.6451 90.4144 11.7393 92.521 11.7393C93.0094 11.7392 93.4545 11.6696 93.8238 11.4951L93.9771 11.4141C94.4056 11.161 94.6898 10.7704 94.69 10.2539V7.97852H86.5113C84.3407 7.97852 82.8051 7.7068 81.8384 7.21973L81.6529 7.11914C80.7839 6.5916 80.3335 5.76355 80.3335 4.53516V3.94336L80.3384 3.71777C80.3877 2.68404 80.7824 1.96036 81.4986 1.47656L81.6568 1.37695C82.6061 0.816288 84.1971 0.5 86.5113 0.5Z" stroke="#DDDDDD" stroke-opacity="0.2"/>
<path d="M86.5113 0.5H97.73V2.26074H87.8462C87.1457 2.26078 86.5375 2.36131 86.0894 2.62598C85.6004 2.91494 85.3434 3.37614 85.3433 3.94336V4.33789C85.3433 4.90534 85.6002 5.36724 86.0894 5.65625C86.5375 5.92091 87.1457 6.02145 87.8462 6.02148H93.856C95.8765 6.02148 97.3145 6.28664 98.2329 6.76074L98.4097 6.8584C99.2665 7.36441 99.6997 8.13832 99.6997 9.26758V10.2539C99.6996 11.3123 99.3193 12.0584 98.5659 12.5645L98.4097 12.6621C97.5035 13.1973 96.0114 13.5 93.856 13.5C92.7251 13.5 91.5273 13.4871 90.2622 13.4609H90.2632L87.1919 13.3818H87.1929C85.0749 13.3205 82.8887 13.2351 80.6343 13.1279V11.459C86.4498 11.6451 90.4144 11.7393 92.521 11.7393C93.0094 11.7392 93.4545 11.6696 93.8238 11.4951L93.9771 11.4141C94.4056 11.161 94.6898 10.7704 94.69 10.2539V7.97852H86.5113C84.3407 7.97852 82.8051 7.7068 81.8384 7.21973L81.6529 7.11914C80.7839 6.5916 80.3335 5.76355 80.3335 4.53516V3.94336L80.3384 3.71777C80.3877 2.68404 80.7824 1.96036 81.4986 1.47656L81.6568 1.37695C82.6061 0.816288 84.1971 0.5 86.5113 0.5Z" stroke="#DDDDDD" stroke-opacity="0.2"/>
<path d="M78.3398 0.5V2.26074H65.8193V5.92285H75.6689V7.68262H65.8193V11.542H78.3398V13.3027H60.8096V0.5H78.3398Z" fill="#DDDDDD"/>
<path d="M78.3398 0.5V2.26074H65.8193V5.92285H75.6689V7.68262H65.8193V11.542H78.3398V13.3027H60.8096V0.5H78.3398Z" stroke="#DDDDDD"/>
<path d="M78.3398 0.5V2.26074H65.8193V5.92285H75.6689V7.68262H65.8193V11.542H78.3398V13.3027H60.8096V0.5H78.3398Z" stroke="#DDDDDD" stroke-opacity="0.2"/>
<path d="M78.3398 0.5V2.26074H65.8193V5.92285H75.6689V7.68262H65.8193V11.542H78.3398V13.3027H60.8096V0.5H78.3398Z" stroke="#DDDDDD" stroke-opacity="0.2"/>
<path d="M41.1608 0.5L46.6921 9.91504L47.1228 10.6494L47.5534 9.91504L53.0847 0.5H58.3952L50.1882 13.3027H44.0573L35.8503 0.5H41.1608Z" fill="#DDDDDD"/>
<path d="M41.1608 0.5L46.6921 9.91504L47.1228 10.6494L47.5534 9.91504L53.0847 0.5H58.3952L50.1882 13.3027H44.0573L35.8503 0.5H41.1608Z" stroke="#DDDDDD"/>
<path d="M41.1608 0.5L46.6921 9.91504L47.1228 10.6494L47.5534 9.91504L53.0847 0.5H58.3952L50.1882 13.3027H44.0573L35.8503 0.5H41.1608Z" stroke="#DDDDDD" stroke-opacity="0.2"/>
<path d="M41.1608 0.5L46.6921 9.91504L47.1228 10.6494L47.5534 9.91504L53.0847 0.5H58.3952L50.1882 13.3027H44.0573L35.8503 0.5H41.1608Z" stroke="#DDDDDD" stroke-opacity="0.2"/>
<path d="M34.4388 0.5V2.26074H31.4339V11.542H34.4388V13.3027H23.4193V11.542H26.4241V2.26074H23.4193V0.5H34.4388Z" fill="#DDDDDD"/>
<path d="M34.4388 0.5V2.26074H31.4339V11.542H34.4388V13.3027H23.4193V11.542H26.4241V2.26074H23.4193V0.5H34.4388Z" stroke="#DDDDDD"/>
<path d="M34.4388 0.5V2.26074H31.4339V11.542H34.4388V13.3027H23.4193V11.542H26.4241V2.26074H23.4193V0.5H34.4388Z" stroke="#DDDDDD" stroke-opacity="0.2"/>
<path d="M34.4388 0.5V2.26074H31.4339V11.542H34.4388V13.3027H23.4193V11.542H26.4241V2.26074H23.4193V0.5H34.4388Z" stroke="#DDDDDD" stroke-opacity="0.2"/>
<path d="M6.33183 0.5L14.1971 8.62891L15.0564 9.51758V0.5H20.0662V13.3027H14.4344L6.56914 5.17383L5.70976 4.28516V13.3027H0.699997V0.5H6.33183Z" fill="#DDDDDD"/>
<path d="M6.33183 0.5L14.1971 8.62891L15.0564 9.51758V0.5H20.0662V13.3027H14.4344L6.56914 5.17383L5.70976 4.28516V13.3027H0.699997V0.5H6.33183Z" stroke="#DDDDDD"/>
<path d="M6.33183 0.5L14.1971 8.62891L15.0564 9.51758V0.5H20.0662V13.3027H14.4344L6.56914 5.17383L5.70976 4.28516V13.3027H0.699997V0.5H6.33183Z" stroke="#DDDDDD" stroke-opacity="0.2"/>
<path d="M6.33183 0.5L14.1971 8.62891L15.0564 9.51758V0.5H20.0662V13.3027H14.4344L6.56914 5.17383L5.70976 4.28516V13.3027H0.699997V0.5H6.33183Z" stroke="#DDDDDD" stroke-opacity="0.2"/>
</svg>
